<svg width="2903" height="698" viewBox="0 0 2903 698" fill="none" xmlns="http://www.w3.org/2000/svg">
<path d="M70.144 521.096C60.2453 521.096 52.5653 518.365 47.104 512.904C41.984 507.443 39.424 499.592 39.424 489.352V184.712C39.424 174.131 41.984 166.109 47.104 160.648C52.5653 154.845 59.5627 151.944 68.096 151.944C75.9467 151.944 81.7493 153.48 85.504 156.552C89.6 159.283 94.3787 164.061 99.84 170.888L295.936 425.352H282.624V183.176C282.624 173.277 285.184 165.597 290.304 160.136C295.765 154.675 303.445 151.944 313.344 151.944C323.243 151.944 330.752 154.675 335.872 160.136C340.992 165.597 343.552 173.277 343.552 183.176V490.376C343.552 499.933 341.163 507.443 336.384 512.904C331.605 518.365 325.12 521.096 316.928 521.096C309.077 521.096 302.763 519.56 297.984 516.488C293.547 513.416 288.597 508.467 283.136 501.64L87.552 247.176H100.352V489.352C100.352 499.592 97.792 507.443 92.672 512.904C87.552 518.365 80.0427 521.096 70.144 521.096ZM441.368 521.096C433.176 521.096 426.52 519.219 421.4 515.464C416.621 511.709 413.72 506.76 412.696 500.616C411.672 494.131 412.867 486.963 416.28 479.112L551.448 179.592C555.885 169.693 561.176 162.696 567.32 158.6C573.805 154.163 581.144 151.944 589.336 151.944C597.187 151.944 604.184 154.163 610.328 158.6C616.813 162.696 622.275 169.693 626.712 179.592L762.392 479.112C766.147 486.963 767.512 494.131 766.488 500.616C765.464 507.101 762.563 512.221 757.784 515.976C753.005 519.389 746.691 521.096 738.84 521.096C729.283 521.096 721.773 518.877 716.312 514.44C711.192 509.661 706.584 502.493 702.488 492.936L669.208 415.624L696.856 433.544H480.792L508.44 415.624L475.672 492.936C471.235 502.835 466.627 510.003 461.848 514.44C457.069 518.877 450.243 521.096 441.368 521.096ZM588.312 227.208L516.632 397.704L503.32 381.32H674.328L661.528 397.704L589.336 227.208H588.312ZM867.936 521.096C857.355 521.096 848.992 518.195 842.848 512.392C837.045 506.248 834.144 497.544 834.144 486.28V190.856C834.144 179.592 837.045 171.059 842.848 165.256C848.992 159.112 857.696 156.04 868.96 156.04H1047.65C1056.52 156.04 1063.18 158.259 1067.62 162.696C1072.05 167.133 1074.27 173.448 1074.27 181.64C1074.27 190.173 1072.05 196.829 1067.62 201.608C1063.18 206.045 1056.52 208.264 1047.65 208.264H899.68V310.152H1036.9C1045.43 310.152 1051.91 312.371 1056.35 316.808C1061.13 321.245 1063.52 327.56 1063.52 335.752C1063.52 344.285 1061.13 350.941 1056.35 355.72C1051.91 360.157 1045.43 362.376 1036.9 362.376H899.68V486.28C899.68 509.491 889.099 521.096 867.936 521.096ZM1170.28 517C1159.7 517 1151.51 514.099 1145.71 508.296C1139.91 502.152 1137 493.789 1137 483.208V187.784C1137 176.861 1139.73 168.669 1145.2 163.208C1151 157.405 1159.19 154.504 1169.77 154.504C1180.35 154.504 1188.37 157.405 1193.84 163.208C1199.64 168.669 1202.54 176.861 1202.54 187.784V461.192H1351.02C1360.24 461.192 1367.23 463.581 1372.01 468.36C1377.13 473.139 1379.69 479.965 1379.69 488.84C1379.69 497.715 1377.13 504.712 1372.01 509.832C1367.23 514.611 1360.24 517 1351.02 517H1170.28Z" fill="#28B88D"/>
<path d="M2029.92 521.096C2020.7 521.096 2013.19 518.877 2007.39 514.44C2001.93 510.003 1997.49 503.005 1994.08 493.448L1887.07 190.856C1883.32 179.933 1884 170.717 1889.12 163.208C1894.58 155.699 1903.63 151.944 1916.26 151.944C1925.47 151.944 1932.64 154.163 1937.76 158.6C1942.88 162.696 1946.98 169.352 1950.05 178.568L2042.21 451.976H2021.73L2117.98 179.08C2121.4 169.864 2125.66 163.037 2130.78 158.6C2135.9 154.163 2142.56 151.944 2150.75 151.944C2158.94 151.944 2165.43 154.163 2170.21 158.6C2174.99 163.037 2179.08 170.035 2182.5 179.592L2275.68 451.976H2257.76L2351.46 178.568C2354.53 169.693 2358.62 163.037 2363.74 158.6C2368.86 154.163 2375.86 151.944 2384.74 151.944C2395.66 151.944 2403.68 155.699 2408.8 163.208C2413.92 170.717 2414.6 179.933 2410.85 190.856L2302.82 493.96C2299.4 503.176 2294.97 510.003 2289.5 514.44C2284.04 518.877 2276.7 521.096 2267.49 521.096C2258.27 521.096 2250.93 518.877 2245.47 514.44C2240.01 510.003 2235.57 503.005 2232.16 493.448L2143.07 239.496H2154.85L2064.74 493.96C2061.32 503.176 2056.89 510.003 2051.42 514.44C2046.3 518.877 2039.14 521.096 2029.92 521.096ZM2606.22 522.12C2591.2 522.12 2576.18 520.925 2561.16 518.536C2546.15 516.488 2531.98 513.245 2518.67 508.808C2505.36 504.029 2493.41 498.227 2482.83 491.4C2476.68 487.304 2472.42 482.355 2470.03 476.552C2467.64 470.749 2466.79 465.117 2467.47 459.656C2468.49 453.853 2470.71 448.904 2474.12 444.808C2477.88 440.371 2482.49 437.64 2487.95 436.616C2493.41 435.592 2499.38 437.128 2505.87 441.224C2520.89 450.099 2536.76 456.584 2553.48 460.68C2570.21 464.776 2587.79 466.824 2606.22 466.824C2633.19 466.824 2652.81 462.387 2665.1 453.512C2677.39 444.296 2683.53 432.52 2683.53 418.184C2683.53 406.237 2679.09 396.851 2670.22 390.024C2661.69 383.197 2646.84 377.565 2625.68 373.128L2569.36 361.352C2536.93 354.525 2512.69 343.091 2496.65 327.048C2480.95 310.664 2473.1 289.16 2473.1 262.536C2473.1 245.811 2476.51 230.621 2483.34 216.968C2490.17 203.315 2499.72 191.539 2512.01 181.64C2524.64 171.741 2539.49 164.232 2556.56 159.112C2573.96 153.651 2593.08 150.92 2613.9 150.92C2634.38 150.92 2653.84 153.48 2672.27 158.6C2690.7 163.72 2707.25 171.229 2721.93 181.128C2727.39 184.883 2730.98 189.491 2732.68 194.952C2734.73 200.413 2735.24 205.875 2734.22 211.336C2733.2 216.456 2730.81 220.893 2727.05 224.648C2723.3 228.403 2718.52 230.621 2712.72 231.304C2707.25 231.987 2700.94 230.28 2693.77 226.184C2681.14 219.016 2668.34 213.896 2655.37 210.824C2642.4 207.752 2628.41 206.216 2613.39 206.216C2597.69 206.216 2584.2 208.435 2572.94 212.872C2561.68 217.309 2552.97 223.624 2546.83 231.816C2541.03 239.667 2538.12 249.053 2538.12 259.976C2538.12 272.264 2542.22 282.163 2550.41 289.672C2558.6 296.84 2572.6 302.472 2592.4 306.568L2648.2 318.344C2682 325.512 2707.08 336.776 2723.47 352.136C2740.19 367.496 2748.56 387.976 2748.56 413.576C2748.56 429.96 2745.14 444.808 2738.32 458.12C2731.83 471.432 2722.27 482.867 2709.64 492.424C2697.36 501.981 2682.51 509.32 2665.1 514.44C2647.69 519.56 2628.07 522.12 2606.22 522.12ZM2839.74 519.56C2828.13 519.56 2818.75 515.976 2811.58 508.808C2804.75 501.64 2801.34 492.424 2801.34 481.16C2801.34 470.237 2804.75 461.363 2811.58 454.536C2818.75 447.368 2828.13 443.784 2839.74 443.784C2851.69 443.784 2860.9 447.368 2867.39 454.536C2874.21 461.363 2877.63 470.237 2877.63 481.16C2877.63 492.424 2874.21 501.64 2867.39 508.808C2860.9 515.976 2851.69 519.56 2839.74 519.56Z" fill="#3E4DED"/>
<g clip-path="url(#clip0_38_2)">
<mask id="mask0_38_2" style="mask-type:luminance" maskUnits="userSpaceOnUse" x="1421" y="116" width="401" height="401">
<path d="M1821.42 316.92C1821.42 206.463 1731.88 116.92 1621.42 116.92C1510.97 116.92 1421.42 206.463 1421.42 316.92C1421.42 427.377 1510.97 516.92 1621.42 516.92C1731.88 516.92 1821.42 427.377 1821.42 316.92Z" fill="white"/>
</mask>
<g mask="url(#mask0_38_2)">
<path d="M1457.79 516.92C1437.7 516.92 1421.42 500.639 1421.42 480.557V316.92V153.284C1421.42 133.2 1437.7 116.92 1457.79 116.92H1621.42C1731.88 116.92 1821.42 206.463 1821.42 316.92C1821.42 427.377 1731.88 516.92 1621.42 516.92H1457.79Z" fill="#28B88D"/>
<path d="M1498.29 516.92C1478.83 516.92 1472.52 490.759 1489.84 481.889C1624.34 413.029 1624.34 220.811 1489.84 151.95C1472.52 143.081 1478.83 116.92 1498.29 116.92H1621.42C1731.88 116.92 1821.42 206.463 1821.42 316.92C1821.42 427.377 1731.88 516.92 1621.42 516.92H1498.29Z" fill="#3E4DED"/>
<path d="M1660.49 316.92C1638.91 316.92 1621.42 299.431 1621.42 277.857C1621.42 256.284 1638.91 238.795 1660.49 238.795C1682.06 238.795 1699.55 256.284 1699.55 277.857C1699.55 299.431 1682.06 316.92 1660.49 316.92Z" fill="#28B88D"/>
</g>
</g>
<defs>
<clipPath id="clip0_38_2">
<rect width="400" height="400" fill="white" transform="translate(1421.42 116.92)"/>
</clipPath>
</defs>
</svg>
