<svg width="1662" height="436" viewBox="0 0 1662 436" fill="none" xmlns="http://www.w3.org/2000/svg">
<g clip-path="url(#clip0_1_28)">
<path d="M10.6141 58.2764H20.6141C48.2283 58.2764 70.6141 80.6621 70.6141 108.276V389.505H60.6141C32.9998 389.505 10.6141 367.119 10.6141 339.505V58.2764Z" fill="#1759A6"/>
<path d="M16.9398 261.714C13.1344 256.581 11.0801 250.361 11.0801 243.971V206.954C11.0801 198.697 14.4746 190.804 20.4678 185.124L50.8765 156.306C58.8087 148.788 71.8782 154.504 71.7442 165.432L71.8146 171.045C71.9744 183.781 82.3438 194.021 95.0801 194.021H179.08H297.08C324.694 194.021 347.08 216.406 347.08 244.021V253.81H179.08H95.0801C81.5978 253.81 70.6683 264.74 70.6683 278.222V304.929C70.6683 314.243 58.7893 318.166 53.2428 310.684L16.9398 261.714Z" fill="#1759A6"/>
<path d="M137.08 388.966V325.19H346.794V338.966C346.794 366.58 324.408 388.966 296.794 388.966H137.08Z" fill="#1759A6"/>
<path d="M163.335 125.671C145.723 125.671 131.446 111.394 131.446 93.7828C131.446 76.1715 145.723 61.8947 163.335 61.8947H174.938V125.671H163.335Z" fill="#1759A6"/>
<path d="M212.08 125.19V62.1896H240.58C257.977 62.1896 272.08 76.2926 272.08 93.6896C272.08 111.087 257.977 125.19 240.58 125.19H212.08Z" fill="#1759A6"/>
<path d="M517.5 344.4C512.1 344.4 507.7 343.1 504.3 340.5C501.1 337.9 498.5 333.8 496.5 328.2L433.8 150.9C431.6 144.5 432 139.1 435 134.7C438.2 130.3 443.5 128.1 450.9 128.1C456.3 128.1 460.5 129.4 463.5 132C466.5 134.4 468.9 138.3 470.7 143.7L524.7 303.9H512.7L569.1 144C571.1 138.6 573.6 134.6 576.6 132C579.6 129.4 583.5 128.1 588.3 128.1C593.1 128.1 596.9 129.4 599.7 132C602.5 134.6 604.9 138.7 606.9 144.3L661.5 303.9H651L705.9 143.7C707.7 138.5 710.1 134.6 713.1 132C716.1 129.4 720.2 128.1 725.4 128.1C731.8 128.1 736.5 130.3 739.5 134.7C742.5 139.1 742.9 144.5 740.7 150.9L677.4 328.5C675.4 333.9 672.8 337.9 669.6 340.5C666.4 343.1 662.1 344.4 656.7 344.4C651.3 344.4 647 343.1 643.8 340.5C640.6 337.9 638 333.8 636 328.2L583.8 179.4H590.7L537.9 328.5C535.9 333.9 533.3 337.9 530.1 340.5C527.1 343.1 522.9 344.4 517.5 344.4ZM775.399 344.4C769.199 344.4 764.399 342.8 760.999 339.6C757.799 336.2 756.199 331.4 756.199 325.2V211.8C756.199 205.6 757.799 200.9 760.999 197.7C764.199 194.5 768.699 192.9 774.499 192.9C780.299 192.9 784.799 194.5 787.999 197.7C791.199 200.9 792.799 205.6 792.799 211.8V230.7H789.799C792.599 218.7 798.099 209.6 806.299 203.4C814.499 197.2 825.399 193.5 838.999 192.3C843.199 191.9 846.499 193 848.899 195.6C851.499 198 852.999 201.8 853.399 207C853.799 212 852.599 216.1 849.799 219.3C847.199 222.3 843.199 224.1 837.799 224.7L831.199 225.3C818.999 226.5 809.799 230.3 803.599 236.7C797.399 242.9 794.299 251.7 794.299 263.1V325.2C794.299 331.4 792.699 336.2 789.499 339.6C786.299 342.8 781.599 344.4 775.399 344.4ZM892.28 344.1C886.28 344.1 881.68 342.3 878.48 338.7C875.28 335.1 873.68 330.1 873.68 323.7V213.6C873.68 207 875.28 202 878.48 198.6C881.68 195 886.28 193.2 892.28 193.2C898.28 193.2 902.88 195 906.08 198.6C909.48 202 911.18 207 911.18 213.6V323.7C911.18 330.1 909.58 335.1 906.38 338.7C903.18 342.3 898.48 344.1 892.28 344.1ZM892.28 165.3C885.28 165.3 879.78 163.6 875.78 160.2C871.98 156.6 870.08 151.7 870.08 145.5C870.08 139.1 871.98 134.2 875.78 130.8C879.78 127.4 885.28 125.7 892.28 125.7C899.48 125.7 904.98 127.4 908.78 130.8C912.58 134.2 914.48 139.1 914.48 145.5C914.48 151.7 912.58 156.6 908.78 160.2C904.98 163.6 899.48 165.3 892.28 165.3ZM968.745 398.4C962.745 398.4 958.145 396.8 954.945 393.6C951.745 390.4 950.145 385.7 950.145 379.5V211.8C950.145 205.6 951.745 200.9 954.945 197.7C958.145 194.5 962.645 192.9 968.445 192.9C974.445 192.9 979.045 194.5 982.245 197.7C985.445 200.9 987.045 205.6 987.045 211.8V235.2L983.745 226.2C986.745 216 992.845 207.8 1002.04 201.6C1011.44 195.4 1022.34 192.3 1034.74 192.3C1047.54 192.3 1058.74 195.4 1068.34 201.6C1078.14 207.8 1085.74 216.6 1091.14 228C1096.54 239.2 1099.24 252.7 1099.24 268.5C1099.24 284.1 1096.54 297.7 1091.14 309.3C1085.74 320.7 1078.24 329.5 1068.64 335.7C1059.04 341.9 1047.74 345 1034.74 345C1022.54 345 1011.84 342 1002.64 336C993.445 329.8 987.245 321.8 984.045 312H987.645V379.5C987.645 385.7 985.945 390.4 982.545 393.6C979.345 396.8 974.745 398.4 968.745 398.4ZM1024.24 316.5C1031.64 316.5 1038.14 314.7 1043.74 311.1C1049.34 307.5 1053.64 302.2 1056.64 295.2C1059.84 288 1061.44 279.1 1061.44 268.5C1061.44 252.5 1058.04 240.6 1051.24 232.8C1044.44 224.8 1035.44 220.8 1024.24 220.8C1016.84 220.8 1010.34 222.6 1004.74 226.2C999.145 229.6 994.745 234.9 991.545 242.1C988.545 249.1 987.045 257.9 987.045 268.5C987.045 284.3 990.445 296.3 997.245 304.5C1004.04 312.5 1013.04 316.5 1024.24 316.5ZM1148.63 344.1C1142.63 344.1 1138.03 342.3 1134.83 338.7C1131.63 335.1 1130.03 330.1 1130.03 323.7V213.6C1130.03 207 1131.63 202 1134.83 198.6C1138.03 195 1142.63 193.2 1148.63 193.2C1154.63 193.2 1159.23 195 1162.43 198.6C1165.83 202 1167.53 207 1167.53 213.6V323.7C1167.53 330.1 1165.93 335.1 1162.73 338.7C1159.53 342.3 1154.83 344.1 1148.63 344.1ZM1148.63 165.3C1141.63 165.3 1136.13 163.6 1132.13 160.2C1128.33 156.6 1126.43 151.7 1126.43 145.5C1126.43 139.1 1128.33 134.2 1132.13 130.8C1136.13 127.4 1141.63 125.7 1148.63 125.7C1155.83 125.7 1161.33 127.4 1165.13 130.8C1168.93 134.2 1170.83 139.1 1170.83 145.5C1170.83 151.7 1168.93 156.6 1165.13 160.2C1161.33 163.6 1155.83 165.3 1148.63 165.3ZM1256.59 345C1239.99 345 1227.49 340.3 1219.09 330.9C1210.69 321.3 1206.49 307.3 1206.49 288.9V147C1206.49 140.8 1208.09 136.1 1211.29 132.9C1214.49 129.7 1219.09 128.1 1225.09 128.1C1231.09 128.1 1235.69 129.7 1238.89 132.9C1242.29 136.1 1243.99 140.8 1243.99 147V287.1C1243.99 296.3 1245.89 303.1 1249.69 307.5C1253.69 311.9 1259.29 314.1 1266.49 314.1C1268.09 314.1 1269.59 314.1 1270.99 314.1C1272.39 313.9 1273.79 313.7 1275.19 313.5C1277.99 313.1 1279.89 313.9 1280.89 315.9C1281.89 317.7 1282.39 321.5 1282.39 327.3C1282.39 332.3 1281.39 336.2 1279.39 339C1277.39 341.8 1274.09 343.5 1269.49 344.1C1267.49 344.3 1265.39 344.5 1263.19 344.7C1260.99 344.9 1258.79 345 1256.59 345ZM1365.68 345C1352.68 345 1341.78 342.8 1332.98 338.4C1324.38 334 1317.98 327.6 1313.78 319.2C1309.58 310.6 1307.48 300 1307.48 287.4V223.5H1291.88C1287.08 223.5 1283.38 222.3 1280.78 219.9C1278.18 217.3 1276.88 213.8 1276.88 209.4C1276.88 204.8 1278.18 201.3 1280.78 198.9C1283.38 196.5 1287.08 195.3 1291.88 195.3H1307.48V168C1307.48 161.8 1309.08 157.1 1312.28 153.9C1315.68 150.7 1320.38 149.1 1326.38 149.1C1332.38 149.1 1336.98 150.7 1340.18 153.9C1343.38 157.1 1344.98 161.8 1344.98 168V195.3H1376.78C1381.58 195.3 1385.28 196.5 1387.88 198.9C1390.48 201.3 1391.78 204.8 1391.78 209.4C1391.78 213.8 1390.48 217.3 1387.88 219.9C1385.28 222.3 1381.58 223.5 1376.78 223.5H1344.98V285.3C1344.98 294.9 1347.08 302.1 1351.28 306.9C1355.48 311.7 1362.28 314.1 1371.68 314.1C1375.08 314.1 1378.08 313.8 1380.68 313.2C1383.28 312.6 1385.58 312.2 1387.58 312C1389.98 311.8 1391.98 312.6 1393.58 314.4C1395.18 316 1395.98 319.4 1395.98 324.6C1395.98 328.6 1395.28 332.2 1393.88 335.4C1392.68 338.4 1390.38 340.5 1386.98 341.7C1384.38 342.5 1380.98 343.2 1376.78 343.8C1372.58 344.6 1368.88 345 1365.68 345ZM1432.82 344.4C1426.62 344.4 1421.82 342.8 1418.42 339.6C1415.22 336.2 1413.62 331.4 1413.62 325.2V211.8C1413.62 205.6 1415.22 200.9 1418.42 197.7C1421.62 194.5 1426.12 192.9 1431.92 192.9C1437.72 192.9 1442.22 194.5 1445.42 197.7C1448.62 200.9 1450.22 205.6 1450.22 211.8V230.7H1447.22C1450.02 218.7 1455.52 209.6 1463.72 203.4C1471.92 197.2 1482.82 193.5 1496.42 192.3C1500.62 191.9 1503.92 193 1506.32 195.6C1508.92 198 1510.42 201.8 1510.82 207C1511.22 212 1510.02 216.1 1507.22 219.3C1504.62 222.3 1500.62 224.1 1495.22 224.7L1488.62 225.3C1476.42 226.5 1467.22 230.3 1461.02 236.7C1454.82 242.9 1451.72 251.7 1451.72 263.1V325.2C1451.72 331.4 1450.12 336.2 1446.92 339.6C1443.72 342.8 1439.02 344.4 1432.82 344.4ZM1577.94 345C1567.34 345 1557.84 343 1549.44 339C1541.24 334.8 1534.74 329.2 1529.94 322.2C1525.34 315.2 1523.04 307.3 1523.04 298.5C1523.04 287.7 1525.84 279.2 1531.44 273C1537.04 266.6 1546.14 262 1558.74 259.2C1571.34 256.4 1588.24 255 1609.44 255H1624.44V276.6H1609.74C1597.34 276.6 1587.44 277.2 1580.04 278.4C1572.64 279.6 1567.34 281.7 1564.14 284.7C1561.14 287.5 1559.64 291.5 1559.64 296.7C1559.64 303.3 1561.94 308.7 1566.54 312.9C1571.14 317.1 1577.54 319.2 1585.74 319.2C1592.34 319.2 1598.14 317.7 1603.14 314.7C1608.34 311.5 1612.44 307.2 1615.44 301.8C1618.44 296.4 1619.94 290.2 1619.94 283.2V248.7C1619.94 238.7 1617.74 231.5 1613.34 227.1C1608.94 222.7 1601.54 220.5 1591.14 220.5C1585.34 220.5 1579.04 221.2 1572.24 222.6C1565.64 224 1558.64 226.4 1551.24 229.8C1547.44 231.6 1544.04 232.1 1541.04 231.3C1538.24 230.5 1536.04 228.9 1534.44 226.5C1532.84 223.9 1532.04 221.1 1532.04 218.1C1532.04 215.1 1532.84 212.2 1534.44 209.4C1536.04 206.4 1538.74 204.2 1542.54 202.8C1551.74 199 1560.54 196.3 1568.94 194.7C1577.54 193.1 1585.34 192.3 1592.34 192.3C1606.74 192.3 1618.54 194.5 1627.74 198.9C1637.14 203.3 1644.14 210 1648.74 219C1653.34 227.8 1655.64 239.2 1655.64 253.2V325.2C1655.64 331.4 1654.14 336.2 1651.14 339.6C1648.14 342.8 1643.84 344.4 1638.24 344.4C1632.64 344.4 1628.24 342.8 1625.04 339.6C1622.04 336.2 1620.54 331.4 1620.54 325.2V310.8H1622.94C1621.54 317.8 1618.74 323.9 1614.54 329.1C1610.54 334.1 1605.44 338 1599.24 340.8C1593.04 343.6 1585.94 345 1577.94 345Z" fill="#1759A6"/>
</g>
<defs>
<clipPath id="clip0_1_28">
<rect width="1662" height="436" fill="white"/>
</clipPath>
</defs>
</svg>
